<svg width="19" height="18" viewBox="0 0 19 18" fill="none" xmlns="http://www.w3.org/2000/svg">
<path d="M7.91641 1.63793C11.4083 1.63793 14.2495 3.96882 14.2495 6.83314C14.2495 9.31621 11.8517 11.9965 7.97578 11.9965C6.72499 11.9965 5.8241 11.7371 5.03246 11.5375C4.26774 12.0226 4.03816 12.2026 2.65279 12.6608C2.98132 11.4188 2.93936 10.8756 2.91482 10.0558C2.25222 9.23685 1.58328 8.36308 1.58328 6.83314C1.58328 3.96882 4.42448 1.63793 7.91641 1.63793ZM7.91641 0C3.73575 0 0 2.88478 0 6.83314C0 8.23299 0.486859 9.60747 1.34975 10.6743C1.38695 11.9236 0.676061 13.7162 0.0348322 15.0203C1.75111 14.7004 4.19253 13.9911 5.29845 13.2899C6.23338 13.5264 7.12873 13.6344 7.97578 13.6344C12.6488 13.6344 15.8328 10.3307 15.8328 6.83314C15.8328 2.86351 12.0717 0 7.91641 0ZM17.048 9.14195C16.9205 9.5412 16.7622 9.92819 16.5722 10.3004C17.8998 11.3329 18.3589 12.9398 16.9395 14.6898C16.9229 15.2993 16.9007 15.548 17.0488 16.2156C16.3426 15.9645 16.2738 15.8949 15.7307 15.5505C14.0469 15.9751 12.3543 16.1199 10.9104 14.851C10.4655 14.981 10.004 15.0784 9.53294 15.1488C10.7307 16.6844 12.9354 17.5189 15.5312 16.8669C16.2548 17.3258 17.8531 17.7889 18.9764 18C18.5569 17.145 18.0922 15.9718 18.1151 15.1537C19.5044 13.4372 19.3366 10.7062 17.048 9.14195ZM5.14567 6.06327C4.67781 6.06327 4.29782 6.45516 4.29782 6.9395C4.29782 7.42385 4.67781 7.81574 5.14567 7.81574C5.61352 7.81574 5.99351 7.42385 5.99351 6.9395C5.99351 6.45516 5.61352 6.06327 5.14567 6.06327ZM7.91641 6.06327C7.44855 6.06327 7.06856 6.45516 7.06856 6.9395C7.06856 7.42385 7.44855 7.81574 7.91641 7.81574C8.38427 7.81574 8.76425 7.42385 8.76425 6.9395C8.76425 6.45516 8.38427 6.06327 7.91641 6.06327ZM10.6872 6.06327C10.2193 6.06327 9.8393 6.45516 9.8393 6.9395C9.8393 7.42385 10.2193 7.81574 10.6872 7.81574C11.155 7.81574 11.535 7.42385 11.535 6.9395C11.535 6.45516 11.155 6.06327 10.6872 6.06327Z" fill="white"/>
</svg>
