<svg width="22" height="20" viewBox="0 0 22 20" fill="none" xmlns="http://www.w3.org/2000/svg">
<path d="M10.9995 1.81818C16.0538 1.81818 20.1658 5.08364 20.1658 9.09727C20.1658 13.5673 15.4498 16.3345 11.082 16.3345C9.30653 16.3345 7.98108 15.9736 7.05437 15.7491C6.13774 16.3064 5.59235 16.6918 3.13854 17.4036C3.62893 16.1555 3.80126 14.9055 3.69035 13.5264C2.92221 12.6173 1.83417 11.3445 1.83417 9.09727C1.83326 5.08364 5.94525 1.81818 10.9995 1.81818ZM10.9995 0C5.18995 0 0 3.84182 0 9.09727C0 10.9609 0.676472 12.7909 1.87634 14.2109C1.92675 15.8745 0.938628 18.2618 0.0494979 20C2.43457 19.5727 5.82517 18.6291 7.36236 17.6945C8.66214 18.0082 9.906 18.1518 11.083 18.1518C17.5764 18.1518 22 13.7545 22 9.09636C21.9991 3.81364 16.7734 0 10.9995 0ZM7.79134 9.09091C7.79134 9.84455 7.17628 10.4545 6.4164 10.4545C5.65743 10.4545 5.04146 9.84455 5.04146 9.09091C5.04146 8.33727 5.65743 7.72727 6.4164 7.72727C7.17628 7.72727 7.79134 8.33727 7.79134 9.09091ZM10.9995 7.72727C10.2406 7.72727 9.6246 8.33727 9.6246 9.09091C9.6246 9.84455 10.2406 10.4545 10.9995 10.4545C11.7594 10.4545 12.3745 9.84455 12.3745 9.09091C12.3745 8.33727 11.7594 7.72727 10.9995 7.72727ZM15.5827 7.72727C14.8237 7.72727 14.2077 8.33727 14.2077 9.09091C14.2077 9.84455 14.8237 10.4545 15.5827 10.4545C16.3426 10.4545 16.9576 9.84455 16.9576 9.09091C16.9576 8.33727 16.3426 7.72727 15.5827 7.72727Z" fill="white"/>
</svg>
