<svg width="18" height="18" viewBox="0 0 18 18" fill="none" xmlns="http://www.w3.org/2000/svg">
<path d="M9 1.5C13.1355 1.5 16.5 4.8645 16.5 9C16.5 13.1355 13.1355 16.5 9 16.5C4.8645 16.5 1.5 13.1355 1.5 9C1.5 4.8645 4.8645 1.5 9 1.5ZM9 0C4.02975 0 0 4.02975 0 9C0 13.9702 4.02975 18 9 18C13.9702 18 18 13.9702 18 9C18 4.02975 13.9702 0 9 0ZM8.99925 4.3125C9.51675 4.3125 9.9375 4.7325 9.9375 5.25C9.9375 5.7675 9.51675 6.1875 8.99925 6.1875C8.48175 6.1875 8.0625 5.7675 8.0625 5.25C8.0625 4.7325 8.48175 4.3125 8.99925 4.3125ZM10.5 13.5H7.5V12.75C7.863 12.6157 8.25 12.5992 8.25 12.1987V8.8485C8.25 8.448 7.863 8.385 7.5 8.25075V7.50075H9.75V12.1995C9.75 12.6008 10.1377 12.618 10.5 12.7507V13.5Z" fill="white"/>
</svg>
