<svg width="27" height="27" viewBox="0 0 27 27" fill="none" xmlns="http://www.w3.org/2000/svg">
<circle cx="13.5" cy="13.5" r="13" fill="#0C0A15" stroke="white"/>
<path d="M13.5 6C9.925 6 7 9.02857 7 12.8V14.8C7 14.8571 7 14.8571 7 14.9143C7 14.9714 7 15.0857 7 15.1429C7 16.7429 8.19167 18 9.70833 18C10.0333 18 10.25 17.7714 10.25 17.4286V12.8571C10.25 12.5143 10.0333 12.2857 9.70833 12.2857C9.1125 12.2857 8.51667 12.5143 8.08333 12.8571V12.7429C8.08333 9.65714 10.5208 7.14286 13.5 7.14286C16.4792 7.14286 18.9167 9.65714 18.9167 12.8V12.8571C18.4833 12.5143 17.8875 12.2857 17.2917 12.2857C16.9667 12.2857 16.75 12.5143 16.75 12.8571V17.4286C16.75 17.7714 16.9667 18 17.2917 18C17.6708 18 18.05 17.8857 18.375 17.7714C17.8333 18.9714 16.8583 19.8857 15.6667 20.4C15.6667 20.3429 15.6667 20.3429 15.6667 20.2857C15.6667 19.9429 15.45 19.7143 15.125 19.7143H13.5C13.175 19.7143 12.9583 19.9429 12.9583 20.2857V21.4286C12.9583 21.7714 13.175 22 13.5 22C17.075 22 20 19.0286 20 15.3714V14.8V13.4286V12.8C20 9.02857 17.075 6 13.5 6Z" fill="white"/>
</svg>
